<svg width="28" height="28" viewBox="0 0 28 28" fill="none" xmlns="http://www.w3.org/2000/svg">
<path d="M17.43 5.05501C17.8711 4.54667 18.2074 3.95621 18.4196 3.31754C18.6318 2.67886 18.7158 2.00456 18.6667 1.33334C17.3126 1.44264 16.0557 2.07949 15.1667 3.10668C14.741 3.59898 14.4184 4.1717 14.218 4.79093C14.0176 5.41015 13.9435 6.06329 14 6.71168C14.6605 6.71718 15.3134 6.57062 15.9082 6.28334C16.503 5.99607 17.0237 5.57578 17.43 5.05501V5.05501ZM20.37 13.735C20.3778 12.841 20.6133 11.9638 21.0542 11.1861C21.4951 10.4084 22.1269 9.75581 22.89 9.29001C22.4084 8.59612 21.7718 8.02398 21.0306 7.61896C20.2895 7.21394 19.4641 6.98719 18.62 6.95668C16.8 6.77001 15.12 8.01834 14.1517 8.01834C13.1834 8.01834 11.8184 6.98001 10.3017 7.00334C9.31017 7.036 8.34404 7.32509 7.49754 7.84239C6.65104 8.3597 5.95306 9.08757 5.47169 9.95501C3.41835 13.525 4.94669 18.8333 7.00002 21.715C7.93335 23.1267 9.10002 24.725 10.64 24.6667C12.18 24.6083 12.6817 23.71 14.4667 23.71C16.2517 23.71 16.8 24.6667 18.3167 24.6317C19.8334 24.5967 20.9067 23.185 21.8867 21.7733C22.5809 20.7485 23.1232 19.6285 23.4967 18.4483C22.5721 18.054 21.7832 17.3975 21.2276 16.5599C20.6719 15.7222 20.3738 14.7402 20.37 13.735V13.735Z" fill="white"/>
</svg>
