<svg width="70" height="70" viewBox="0 0 70 70" fill="none" xmlns="http://www.w3.org/2000/svg">
<path d="M47.2502 37.625C46.6668 37.3334 46.3752 37.0417 45.7918 37.0417C53.3752 31.2084 54.8335 20.125 48.7085 12.5417C42.5835 4.95836 31.7918 3.50002 24.2085 9.62502C16.6252 15.75 15.1668 26.5417 21.2918 34.125C22.1668 35.2917 23.0418 36.1667 24.2085 37.0417C23.9168 37.3334 23.3335 37.3334 23.0418 37.625C23.0418 37.625 23.0418 37.625 22.7502 37.625C13.4168 42 7.00016 50.75 5.8335 60.9584C5.8335 62.4167 7.00016 63.875 8.75016 64.1667H61.2502C62.7085 63.875 63.8752 62.4167 63.8752 60.9584C63.0002 50.75 56.5835 42 47.2502 37.625Z" fill="black"/>
</svg>
