<svg width="20" height="20" viewBox="0 0 20 20" fill="none" xmlns="http://www.w3.org/2000/svg">
<path d="M15.4502 7.5L7.40018 2.88333C6.96458 2.6318 6.47017 2.50003 5.96717 2.50141C5.46417 2.5028 4.97049 2.63728 4.53628 2.8912C4.10208 3.14512 3.74281 3.50944 3.49497 3.94715C3.24713 4.38486 3.11954 4.88036 3.12518 5.38333V14.65C3.12518 15.4059 3.42545 16.1308 3.95992 16.6653C4.4944 17.1997 5.21931 17.5 5.97518 17.5C6.47554 17.4992 6.96692 17.367 7.40018 17.1167L15.4502 12.5C15.8827 12.2497 16.2418 11.89 16.4915 11.457C16.7412 11.0241 16.8726 10.5331 16.8726 10.0333C16.8726 9.53357 16.7412 9.04258 16.4915 8.60964C16.2418 8.17669 15.8827 7.81701 15.4502 7.56667V7.5Z" fill="white"/>
</svg>
