<svg width="20" height="20" viewBox="0 0 20 20" fill="none" xmlns="http://www.w3.org/2000/svg">
<path d="M7.24979 8.33334C7.40592 8.48855 7.61713 8.57567 7.83729 8.57567C8.05744 8.57567 8.26865 8.48855 8.42479 8.33334C8.58 8.17721 8.66711 7.966 8.66711 7.74585C8.66711 7.52569 8.58 7.31448 8.42479 7.15835L3.19979 1.90835C3.04287 1.75143 2.83004 1.66327 2.60812 1.66327C2.3862 1.66327 2.17337 1.75143 2.01645 1.90835C1.85953 2.06527 1.77138 2.27809 1.77138 2.50001C1.77138 2.72193 1.85953 2.93476 2.01645 3.09168L7.24979 8.33334ZM17.4998 11.6667C17.2788 11.6667 17.0668 11.7545 16.9105 11.9108C16.7543 12.067 16.6665 12.279 16.6665 12.5V15.4917L12.8665 11.6667C12.7073 11.5075 12.4915 11.4181 12.2665 11.4181C12.0414 11.4181 11.8256 11.5075 11.6665 11.6667C11.5073 11.8258 11.4179 12.0416 11.4179 12.2667C11.4179 12.4917 11.5073 12.7075 11.6665 12.8667L15.4915 16.6667H12.4998C12.2788 16.6667 12.0668 16.7545 11.9105 16.9108C11.7543 17.067 11.6665 17.279 11.6665 17.5C11.6665 17.721 11.7543 17.933 11.9105 18.0893C12.0668 18.2455 12.2788 18.3333 12.4998 18.3333H17.4998C17.6087 18.332 17.7163 18.3094 17.8165 18.2667C18.0201 18.1821 18.1819 18.0203 18.2665 17.8167C18.3092 17.7165 18.3318 17.6089 18.3331 17.5V12.5C18.3331 12.279 18.2453 12.067 18.089 11.9108C17.9328 11.7545 17.7208 11.6667 17.4998 11.6667ZM18.2665 2.18335C18.1819 1.97972 18.0201 1.81791 17.8165 1.73335C17.7163 1.69064 17.6087 1.668 17.4998 1.66668H12.4998C12.2788 1.66668 12.0668 1.75448 11.9105 1.91076C11.7543 2.06704 11.6665 2.279 11.6665 2.50001C11.6665 2.72103 11.7543 2.93299 11.9105 3.08927C12.0668 3.24555 12.2788 3.33335 12.4998 3.33335H15.4915L1.90812 16.9083C1.83001 16.9858 1.76802 17.078 1.72571 17.1795C1.6834 17.2811 1.66162 17.39 1.66162 17.5C1.66162 17.61 1.6834 17.7189 1.72571 17.8205C1.76802 17.922 1.83001 18.0142 1.90812 18.0917C1.98559 18.1698 2.07776 18.2318 2.17931 18.2741C2.28086 18.3164 2.38978 18.3382 2.49979 18.3382C2.6098 18.3382 2.71872 18.3164 2.82027 18.2741C2.92182 18.2318 3.01398 18.1698 3.09145 18.0917L16.6665 4.50835V7.50001C16.6665 7.72103 16.7543 7.93299 16.9105 8.08927C17.0668 8.24555 17.2788 8.33334 17.4998 8.33334C17.7208 8.33334 17.9328 8.24555 18.089 8.08927C18.2453 7.93299 18.3331 7.72103 18.3331 7.50001V2.50001C18.3318 2.39111 18.3092 2.28353 18.2665 2.18335Z" fill="#080F34"/>
</svg>
