<svg width="34" height="34" viewBox="0 0 34 34" fill="none" xmlns="http://www.w3.org/2000/svg">
<path fill-rule="evenodd" clip-rule="evenodd" d="M17 9C16.3688 9 15.8571 9.51167 15.8571 10.1429V15.8571H10.1429C9.51167 15.8571 9 16.3688 9 17C9 17.6312 9.51167 18.1429 10.1429 18.1429H15.8571V23.8571C15.8571 24.4883 16.3688 25 17 25C17.6311 25 18.1428 24.4883 18.1428 23.8571V18.1429H23.8571C24.4883 18.1429 25 17.6312 25 17C25 16.3688 24.4883 15.8571 23.8571 15.8571H18.1428V10.1429C18.1428 9.51167 17.6311 9 17 9Z" fill="black"/>
<rect x="1" y="1" width="32" height="32" rx="16" stroke="black" stroke-width="2"/>
</svg>
