<svg width="19" height="21" viewBox="0 0 19 21" fill="none" xmlns="http://www.w3.org/2000/svg">
<path d="M0.28 21V0.419999H4.39L12.67 11.52C12.79 11.66 12.94 11.86 13.12 12.12C13.3 12.36 13.47 12.6 13.63 12.84C13.79 13.08 13.9 13.27 13.96 13.41H14.11C14.11 13.07 14.11 12.74 14.11 12.42C14.11 12.08 14.11 11.78 14.11 11.52V0.419999H18.34V21H14.23L5.77 9.63C5.57 9.35 5.36 9.04 5.14 8.7C4.92 8.36 4.76 8.1 4.66 7.92H4.51C4.51 8.22 4.51 8.52 4.51 8.82C4.51 9.1 4.51 9.37 4.51 9.63V21H0.28Z" fill="white"/>
</svg>
